<svg xmlns="http://www.w3.org/2000/svg" viewBox="0 0 100 100" role="img" aria-label="Coati mark">
  <!--
    Coati mark — single-colour vector.
    Use fill="currentColor" for CSS-driven recolouring, or replace the
    hard-coded fill on the <g> element for a fixed colour.

    viewBox: 0 0 100 100  (aspect ratio 1:1)
  -->
  <g fill="currentColor">
    <!-- Body: thick C-arc formed by the coati's tail/body -->
    <path d="
      M 72,14
      C 90,14 96,30 96,50
      C 96,72 80,90 58,92
      C 36,94 16,80 10,60
      C 4,40 14,18 32,10
      L 35,20
      C 22,26 15,40 19,55
      C 23,70 37,80 53,79
      C 69,78 82,66 82,50
      C 82,35 76,23 65,20
      Z
    "/>
    <!-- Stripe highlights on the tail arc (lighter band) -->
    <path d="M 28,12 C 34,9 40,8 40,8 L 37,18 C 37,18 31,19 26,22 Z" opacity="0.45"/>
    <path d="M 14,30 C 12,36 10,44 11,50 L 21,48 C 20,44 21,38 22,33 Z" opacity="0.45"/>
    <path d="M 14,62 C 17,70 23,77 30,82 L 34,73 C 29,69 25,64 23,58 Z" opacity="0.45"/>
    <path d="M 44,88 C 50,91 57,92 63,91 L 60,81 C 55,82 50,82 45,79 Z" opacity="0.45"/>
    <!-- Head: circle -->
    <circle cx="70" cy="18" r="14"/>
    <!-- Ear: small rounded bump at top-left of head -->
    <circle cx="60" cy="7" r="5"/>
    <!-- Snout: tapered shape pointing right -->
    <path d="M 80,15 L 96,19 L 80,25 Z"/>
    <!-- Eye: small white dot -->
    <circle cx="74" cy="15" r="3" fill="white"/>
    <!-- Nose dot -->
    <circle cx="94" cy="19" r="2" fill="white"/>
  </g>
</svg>
